<?xml version="1.0" encoding="utf-8"?>
<!-- Generator: Adobe Illustrator 18.1.1, SVG Export Plug-In . SVG Version: 6.00 Build 0)  -->
<!DOCTYPE svg PUBLIC "-//W3C//DTD SVG 1.1//EN" "http://www.w3.org/Graphics/SVG/1.1/DTD/svg11.dtd">
<svg version="1.1" id="Layer_1" xmlns="http://www.w3.org/2000/svg" xmlns:xlink="http://www.w3.org/1999/xlink" x="0px" y="0px"
	 viewBox="0 0 389 76" enable-background="new 0 0 389 76" xml:space="preserve">
<g>
	<g>
		<path fill="#FAFDFF" d="M90.7,2.3h3.1l13.5,32.3h-3.4l-3.5-8.6h-17l-3.6,8.6h-3.1L90.7,2.3z M92.1,5.6l-7.5,17.7h14.7L92.1,5.6z"
			/>
		<path fill="#FAFDFF" d="M134.7,22.3c0,1.7-0.2,3.4-0.6,5c-0.4,1.6-1.1,3-2,4.2c-0.9,1.2-2.1,2.2-3.6,2.9c-1.5,0.7-3.3,1.1-5.5,1.1
			s-4-0.4-5.5-1.1c-1.5-0.7-2.7-1.7-3.6-2.9c-0.9-1.2-1.6-2.6-2-4.2c-0.4-1.6-0.6-3.2-0.6-5V2.3h3v19.1c0,1.2,0.1,2.4,0.3,3.7
			c0.2,1.3,0.6,2.5,1.2,3.6c0.6,1.1,1.5,2.1,2.6,2.8c1.1,0.7,2.6,1.1,4.5,1.1c1.9,0,3.4-0.4,4.5-1.1c1.1-0.7,2-1.7,2.6-2.8
			c0.6-1.1,1-2.3,1.2-3.6c0.2-1.3,0.3-2.5,0.3-3.7V2.3h3V22.3z"/>
		<path fill="#FAFDFF" d="M142.5,2.3h9.9c2.8,0,5.1,0.3,7.1,1c1.9,0.7,3.5,1.6,4.8,2.6c1.3,1.1,2.3,2.2,3,3.5
			c0.7,1.3,1.3,2.5,1.6,3.7c0.3,1.2,0.6,2.3,0.7,3.2c0.1,1,0.1,1.6,0.1,2c0,0.4,0,1.1-0.1,2c-0.1,1-0.3,2-0.7,3.2
			c-0.3,1.2-0.9,2.4-1.6,3.7c-0.7,1.3-1.8,2.5-3,3.5c-1.3,1.1-2.9,1.9-4.8,2.6c-1.9,0.7-4.3,1-7.1,1h-9.9V2.3z M145.5,31.9h6.2
			c2.1,0,4.1-0.3,5.9-0.8c1.8-0.5,3.4-1.3,4.8-2.4c1.4-1.1,2.4-2.5,3.2-4.2c0.8-1.7,1.2-3.7,1.2-6c0-2.3-0.4-4.3-1.2-6
			c-0.8-1.7-1.9-3.1-3.2-4.2c-1.4-1.1-3-1.9-4.8-2.4c-1.8-0.5-3.8-0.8-5.9-0.8h-6.2V31.9z"/>
		<path fill="#FAFDFF" d="M176.6,2.3h3v32.3h-3V2.3z"/>
		<path fill="#FAFDFF" d="M186.3,18.5c0-2.5,0.4-4.7,1.2-6.8c0.8-2.1,2-3.9,3.4-5.4c1.5-1.5,3.2-2.7,5.2-3.5c2-0.9,4.3-1.3,6.7-1.3
			c2.4,0,4.7,0.4,6.7,1.3c2,0.9,3.8,2,5.2,3.5c1.5,1.5,2.6,3.3,3.4,5.4c0.8,2.1,1.2,4.3,1.2,6.8c0,2.5-0.4,4.7-1.2,6.8
			c-0.8,2.1-2,3.9-3.4,5.4c-1.5,1.5-3.2,2.7-5.2,3.5c-2,0.8-4.3,1.3-6.7,1.3c-2.5,0-4.7-0.4-6.7-1.3c-2-0.8-3.8-2-5.2-3.5
			c-1.5-1.5-2.6-3.3-3.4-5.4C186.7,23.2,186.3,20.9,186.3,18.5z M189.3,18.5c0,2,0.3,3.9,1,5.6c0.6,1.7,1.5,3.2,2.7,4.5
			c1.2,1.3,2.6,2.3,4.3,3c1.7,0.7,3.6,1.1,5.6,1.1s4-0.4,5.6-1.1c1.7-0.7,3.1-1.7,4.3-3c1.2-1.3,2.1-2.8,2.7-4.5
			c0.6-1.7,1-3.6,1-5.6c0-2-0.3-3.9-1-5.6c-0.6-1.7-1.5-3.2-2.7-4.5c-1.2-1.3-2.6-2.3-4.3-3c-1.7-0.7-3.6-1.1-5.6-1.1
			s-4,0.4-5.6,1.1c-1.7,0.7-3.1,1.7-4.3,3c-1.2,1.3-2.1,2.8-2.7,4.5C189.6,14.6,189.3,16.5,189.3,18.5z"/>
		<rect x="174.7" y="11.5" fill="#FAFDFF" width="6.6" height="3.3"/>
		<rect x="140.9" y="7.1" fill="#FAFDFF" width="6.6" height="3.3"/>
		<rect x="130" y="18.1" fill="#FAFDFF" width="6.6" height="3.3"/>
		<rect x="109.5" y="7.1" fill="#FAFDFF" width="6.6" height="3.3"/>
	</g>
	<g>
		<path fill="#FAFDFF" d="M87.6,45.6h-11v-2.7h25v2.7h-11v29.5h-3V45.6z"/>
		<path fill="#FAFDFF" d="M106.5,42.9h19.6v2.7h-16.6v11.5h15.6v2.7h-15.6v12.6h17.4v2.7h-20.4V42.9z"/>
		<path fill="#FAFDFF" d="M159.9,70.1c-1.5,2.1-3.3,3.6-5.4,4.5c-2,0.9-4.2,1.4-6.6,1.4c-2.5,0-4.7-0.4-6.7-1.3
			c-2-0.8-3.8-2-5.2-3.5c-1.5-1.5-2.6-3.3-3.4-5.4c-0.8-2.1-1.2-4.4-1.2-6.8c0-2.5,0.4-4.7,1.2-6.8c0.8-2.1,2-3.9,3.4-5.4
			c1.5-1.5,3.2-2.7,5.2-3.5c2-0.9,4.3-1.3,6.7-1.3c2.2,0,4.2,0.4,6.1,1.2c1.9,0.8,3.5,2.1,5,3.9l-2.4,2.1c-1-1.5-2.3-2.6-3.8-3.3
			c-1.6-0.7-3.2-1-4.8-1c-2.1,0-4,0.4-5.6,1.1c-1.7,0.7-3.1,1.7-4.3,3c-1.2,1.3-2.1,2.8-2.7,4.5c-0.6,1.7-1,3.6-1,5.6
			c0,2,0.3,3.9,1,5.6c0.6,1.7,1.5,3.2,2.7,4.5c1.2,1.3,2.6,2.3,4.3,3c1.7,0.7,3.6,1.1,5.6,1.1c0.8,0,1.7-0.1,2.5-0.3
			c0.9-0.2,1.7-0.5,2.6-0.9c0.8-0.4,1.6-0.9,2.4-1.5c0.8-0.6,1.4-1.4,2-2.3L159.9,70.1z"/>
		<path fill="#FAFDFF" d="M165.4,42.9h3v14.2h18V42.9h3v32.3h-3V59.9h-18v15.3h-3V42.9z"/>
		<path fill="#FAFDFF" d="M198.1,42.9h3.9l19.6,28.3h0.1V42.9h3v32.3h-3.9l-19.6-28.3h-0.1v28.3h-3V42.9z"/>
		<path fill="#FAFDFF" d="M231.4,59c0-2.5,0.4-4.7,1.2-6.8c0.8-2.1,2-3.9,3.4-5.4c1.5-1.5,3.2-2.7,5.2-3.5c2-0.9,4.3-1.3,6.7-1.3
			c2.5,0,4.7,0.4,6.7,1.3c2,0.9,3.8,2,5.2,3.5c1.5,1.5,2.6,3.3,3.4,5.4c0.8,2.1,1.2,4.3,1.2,6.8c0,2.5-0.4,4.7-1.2,6.8
			c-0.8,2.1-2,3.9-3.4,5.4c-1.5,1.5-3.2,2.7-5.2,3.5c-2,0.8-4.3,1.3-6.7,1.3c-2.4,0-4.7-0.4-6.7-1.3c-2-0.8-3.8-2-5.2-3.5
			c-1.5-1.5-2.6-3.3-3.4-5.4C231.8,63.8,231.4,61.5,231.4,59z M234.3,59c0,2,0.3,3.9,1,5.6c0.6,1.7,1.5,3.2,2.7,4.5
			c1.2,1.3,2.6,2.3,4.3,3c1.7,0.7,3.6,1.1,5.6,1.1c2.1,0,4-0.4,5.6-1.1c1.7-0.7,3.1-1.7,4.3-3c1.2-1.3,2.1-2.8,2.7-4.5
			c0.6-1.7,1-3.6,1-5.6c0-2-0.3-3.9-1-5.6s-1.5-3.2-2.7-4.5c-1.2-1.3-2.6-2.3-4.3-3c-1.7-0.7-3.6-1.1-5.6-1.1c-2.1,0-4,0.4-5.6,1.1
			c-1.7,0.7-3.1,1.7-4.3,3c-1.2,1.3-2.1,2.8-2.7,4.5S234.3,57,234.3,59z"/>
		<path fill="#FAFDFF" d="M271.3,42.9h3v29.5h15v2.7h-18V42.9z"/>
		<path fill="#FAFDFF" d="M291.9,59c0-2.5,0.4-4.7,1.2-6.8c0.8-2.1,2-3.9,3.4-5.4c1.5-1.5,3.2-2.7,5.2-3.5c2-0.9,4.3-1.3,6.7-1.3
			c2.5,0,4.7,0.4,6.7,1.3c2,0.9,3.8,2,5.2,3.5c1.5,1.5,2.6,3.3,3.4,5.4c0.8,2.1,1.2,4.3,1.2,6.8c0,2.5-0.4,4.7-1.2,6.8
			c-0.8,2.1-2,3.9-3.4,5.4c-1.5,1.5-3.2,2.7-5.2,3.5c-2,0.8-4.3,1.3-6.7,1.3c-2.4,0-4.7-0.4-6.7-1.3c-2-0.8-3.8-2-5.2-3.5
			s-2.6-3.3-3.4-5.4C292.3,63.8,291.9,61.5,291.9,59z M294.9,59c0,2,0.3,3.9,1,5.6c0.6,1.7,1.5,3.2,2.7,4.5c1.2,1.3,2.6,2.3,4.3,3
			c1.7,0.7,3.6,1.1,5.6,1.1s4-0.4,5.6-1.1c1.7-0.7,3.1-1.7,4.3-3c1.2-1.3,2.1-2.8,2.7-4.5c0.6-1.7,1-3.6,1-5.6c0-2-0.3-3.9-1-5.6
			c-0.6-1.7-1.5-3.2-2.7-4.5c-1.2-1.3-2.6-2.3-4.3-3c-1.7-0.7-3.6-1.1-5.6-1.1s-4,0.4-5.6,1.1c-1.7,0.7-3.1,1.7-4.3,3
			c-1.2,1.3-2.1,2.8-2.7,4.5S294.9,57,294.9,59z"/>
		<path fill="#FAFDFF" d="M358.3,73.1c-1.9,1.1-3.8,1.8-5.8,2.3c-2,0.4-4.1,0.7-6.1,0.7c-2.4,0-4.7-0.4-6.7-1.3
			c-2-0.8-3.8-2-5.2-3.5c-1.5-1.5-2.6-3.3-3.4-5.4c-0.8-2.1-1.2-4.4-1.2-6.8c0-2.5,0.4-4.7,1.2-6.8c0.8-2.1,2-3.9,3.4-5.4
			c1.5-1.5,3.2-2.7,5.2-3.5c2-0.9,4.3-1.3,6.7-1.3c4.8,0,8.6,1.5,11.6,4.5l-2.2,2.3c-0.5-0.6-1.1-1.1-1.8-1.6
			c-0.7-0.5-1.5-0.9-2.3-1.3c-0.8-0.3-1.7-0.6-2.6-0.8c-0.9-0.2-1.8-0.3-2.7-0.3c-2.1,0-4,0.4-5.6,1.1c-1.7,0.7-3.1,1.7-4.3,3
			c-1.2,1.3-2.1,2.8-2.7,4.5s-1,3.6-1,5.6c0,2,0.3,3.9,1,5.6c0.6,1.7,1.5,3.2,2.7,4.5c1.2,1.3,2.6,2.3,4.3,3
			c1.7,0.7,3.6,1.1,5.6,1.1c1.7,0,3.3-0.1,4.9-0.4c1.5-0.3,2.9-0.8,4.1-1.5V60.5h-7.7v-2.7h10.7V73.1z"/>
		<path fill="#FAFDFF" d="M374.2,61.3l-11.8-18.4h3.6l9.7,15.3l9.9-15.3h3.4l-11.8,18.4v13.9h-3V61.3z"/>
		<rect x="196.5" y="64.2" fill="#FAFDFF" width="6.6" height="3.3"/>
		<rect x="163.6" y="64.2" fill="#FAFDFF" width="6.6" height="3.3"/>
		<rect x="104.9" y="60.9" fill="#FAFDFF" width="6.6" height="3.3"/>
		<rect x="85.8" y="67.5" fill="#FAFDFF" width="6.6" height="3.3"/>
		<rect x="269.5" y="56.2" fill="#FAFDFF" width="6.6" height="3.3"/>
		<rect x="353.4" y="66.8" fill="#FAFDFF" width="6.6" height="3.3"/>
		<rect x="372.3" y="62.2" fill="#FAFDFF" width="6.6" height="3.3"/>
	</g>
</g>
<g>
	<path fill="#5C91CC" d="M69.3,66.4v8.8h-4.1v-8.8H69.3z"/>
	<path fill="#5C91CC" d="M63.9,66.4v8.8h-4.1v-8.8H63.9z"/>
	<path fill="#5C91CC" d="M58.5,66.4v8.8h-4.1v-8.8H58.5z"/>
	<path fill="#5C91CC" d="M53,66.4v8.8H49v-8.8H53z"/>
	<path fill="#5C91CC" d="M69.3,55.5v8.8h-4.1v-8.8H69.3z"/>
	<path fill="#5C91CC" d="M63.9,55.5v8.8h-4.1v-8.8H63.9z"/>
	<path fill="#5C91CC" d="M58.5,55.5v8.8h-4.1v-8.8H58.5z"/>
	<path fill="#5C91CC" d="M53,55.5v8.8H49v-8.8H53z"/>
	<path fill="#5C91CC" d="M47.6,55.5v8.8h-4.1v-8.8H47.6z"/>
	<path fill="#5C91CC" d="M69.3,44.5v8.8h-4.1v-8.8H69.3z"/>
	<path fill="#5C91CC" d="M63.9,44.5v8.8h-4.1v-8.8H63.9z"/>
	<path fill="#5C91CC" d="M58.5,44.5v8.8h-4.1v-8.8H58.5z"/>
	<path fill="#5C91CC" d="M53,44.5v8.8H49v-8.8H53z"/>
	<path fill="#5C91CC" d="M47.6,44.5v8.8h-4.1v-8.8H47.6z"/>
	<path fill="#5C91CC" d="M42.1,44.5v8.8h-4.1v-8.8H42.1z"/>
	<path fill="#5C91CC" d="M36.7,44.5v8.8h-4.1v-8.8H36.7z"/>
	<path fill="#5C91CC" d="M69.3,33.6v8.8h-4.1v-8.8H69.3z"/>
	<path fill="#5C91CC" d="M63.9,33.6v8.8h-4.1v-8.8H63.9z"/>
	<path fill="#5C91CC" d="M58.5,33.6v8.8h-4.1v-8.8H58.5z"/>
	<path fill="#5C91CC" d="M53,33.6v8.8H49v-8.8H53z"/>
	<path fill="#5C91CC" d="M47.6,33.6v8.8h-4.1v-8.8H47.6z"/>
	<path fill="#5C91CC" d="M42.1,33.6v8.8h-4.1v-8.8H42.1z"/>
	<path fill="#5C91CC" d="M36.7,33.6v8.8h-4.1v-8.8H36.7z"/>
	<path fill="#5C91CC" d="M31.3,33.6v8.8h-4.1v-8.8H31.3z"/>
	<path fill="#5C91CC" d="M25.8,33.6v8.8h-4.1v-8.8H25.8z"/>
	<path fill="#5C91CC" d="M20.4,33.6v8.8h-4.1v-8.8H20.4z"/>
	<path fill="#5C91CC" d="M14.9,33.6v8.8h-4.1v-8.8H14.9z"/>
	<path fill="#5C91CC" d="M69.3,22.6v8.8h-4.1v-8.8H69.3z"/>
	<path fill="#5C91CC" d="M63.9,22.6v8.8h-4.1v-8.8H63.9z"/>
	<path fill="#5C91CC" d="M58.5,22.6v8.8h-4.1v-8.8H58.5z"/>
	<path fill="#5C91CC" d="M53,22.6v8.8H49v-8.8H53z"/>
	<path fill="#5C91CC" d="M47.6,22.6v8.8h-4.1v-8.8H47.6z"/>
	<g>
		<path fill="#5C91CC" d="M69.3,11.7v8.8h-4.1v-8.8H69.3z"/>
		<path fill="#5C91CC" d="M63.9,11.7v8.8h-4.1v-8.8H63.9z"/>
		<path fill="#5C91CC" d="M58.5,11.7v8.8h-4.1v-8.8H58.5z"/>
		<path fill="#5C91CC" d="M53,11.7v8.8H49v-8.8H53z"/>
		<path fill="#5C91CC" d="M47.6,11.7v8.8h-4.1v-8.8H47.6z"/>
		<path fill="#5C91CC" d="M42.1,11.7v8.8h-4.1v-8.8H42.1z"/>
		<path fill="#5C91CC" d="M36.7,11.7v8.8h-4.1v-8.8H36.7z"/>
		<path fill="#5C91CC" d="M31.3,11.7v8.8h-4.1v-8.8H31.3z"/>
		<path fill="#5C91CC" d="M25.8,11.7v8.8h-4.1v-8.8H25.8z"/>
		<path fill="#5C91CC" d="M20.4,11.7v8.8h-4.1v-8.8H20.4z"/>
		<path fill="#5C91CC" d="M14.9,11.7v8.8h-4.1v-8.8H14.9z"/>
		<path fill="#5C91CC" d="M9.5,11.7v8.8H5.4v-8.8H9.5z"/>
		<path fill="#5C91CC" d="M4.1,11.7v8.8H0l0-8.8H4.1z"/>
	</g>
	<path fill="#5C91CC" d="M69.3,0.8v8.8h-4.1V0.8H69.3z"/>
	<path fill="#5C91CC" d="M63.9,0.8v8.8h-4.1V0.8H63.9z"/>
	<path fill="#5C91CC" d="M58.5,0.8v8.8h-4.1V0.8H58.5z"/>
	<path fill="#5C91CC" d="M53,0.8v8.8H49V0.8H53z"/>
	<path fill="#5C91CC" d="M47.6,0.8v8.8h-4.1V0.8H47.6z"/>
	<path fill="#5C91CC" d="M42.1,0.8v8.8h-4.1V0.8H42.1z"/>
	<path fill="#5C91CC" d="M36.7,0.8v8.8h-4.1V0.8H36.7z"/>
	<path fill="#5C91CC" d="M31.3,0.8v8.8h-4.1V0.8H31.3z"/>
	<path fill="#5C91CC" d="M25.8,0.8v8.8h-4.1V0.8H25.8z"/>
	<path fill="#5C91CC" d="M20.4,0.8v8.8h-4.1V0.8H20.4z"/>
</g>
</svg>
